<svg width="80" height="83" viewBox="0 0 80 83" fill="none" xmlns="http://www.w3.org/2000/svg">
<path d="M79 41C79 62.5391 61.3152 80 39.5 80C17.6848 80 0 62.5391 0 41C0 19.4609 17.6848 2 39.5 2C61.3152 2 79 19.4609 79 41Z" fill="black"/>
<path d="M46.8686 8.14739C52.0506 9.30636 56.2214 13.7952 58.5963 20.6011C60.962 27.3812 61.4383 36.2249 59.3647 45.496C57.2912 54.767 53.093 62.5644 48.0644 67.6907C43.0164 72.8366 37.3306 75.1218 32.1486 73.9628C26.9667 72.8037 22.796 68.3141 20.4212 61.5081C18.0556 54.7281 17.58 45.8853 19.6535 36.6143C21.727 27.3433 25.9244 19.5448 30.953 14.4185C36.0009 9.27269 41.6867 6.98855 46.8686 8.14739Z" stroke="#6DE0C7" stroke-width="3.14416"/>
<circle cx="39.9496" cy="41.2911" r="36.3929" stroke="white" stroke-width="3.53717"/>
<circle cx="40" cy="41.2413" r="38.4279" stroke="#6DE0C7" stroke-width="3.14416"/>
<path d="M48.5131 50.7809C45.6033 56.5815 36.6393 53.2092 32.9988 51.5807L30.4254 56.1313C30.4254 56.1313 48.5365 63.484 52.5014 52.8192C56.3992 42.3348 41.7418 37.2601 41.7418 37.2601C45.9755 40.1203 51.2574 45.3101 48.5131 50.7809Z" fill="white" stroke="white" stroke-width="0.0982549"/>
<path d="M47.1871 6.86364C52.741 8.10579 57.2249 12.8028 59.8057 19.8839C62.3786 26.943 62.9491 36.1379 60.7959 45.765C58.6428 55.3921 54.2095 63.4679 48.8746 68.7584C43.5231 74.0654 37.4655 76.4047 31.9116 75.1626C26.3579 73.9203 21.8747 69.2234 19.2939 62.1425C16.7211 55.0834 16.1506 45.8885 18.3037 36.2614C20.4569 26.6343 24.8901 18.5585 30.225 13.268C35.5764 7.96119 41.6333 5.62166 47.1871 6.86364Z" stroke="white" stroke-width="3.53717"/>
<path d="M32.6666 31.7692C35.5763 25.9685 44.5403 29.3408 48.1809 30.9693L50.7543 26.4187C50.7543 26.4187 32.6432 19.0661 28.6783 29.7308C24.7805 40.2152 39.4379 45.2899 39.4379 45.2899C35.2042 42.4297 29.9223 37.24 32.6666 31.7692Z" fill="white" stroke="white" stroke-width="0.0982549"/>
<path d="M52.9313 24.2469C52.9313 24.2469 52.7838 26.3828 52.6893 27.7514C52.667 28.0749 52.6558 28.2366 52.6833 28.3907C52.7077 28.5271 52.7544 28.6587 52.8214 28.7801C52.8971 28.917 53.0076 29.0356 53.2288 29.2728C54.1645 30.276 55.6247 31.8418 55.6247 31.8418L52.1201 31.5999C51.7966 31.5775 51.6349 31.5663 51.4809 31.5939C51.3444 31.6182 51.2128 31.6649 51.0914 31.732C50.9545 31.8076 50.8359 31.9182 50.5988 32.1394L48.0297 34.5352L48.2717 31.0307C48.294 30.7072 48.3052 30.5454 48.2777 30.3914C48.2533 30.2549 48.2066 30.1234 48.1396 30.002C48.0639 29.865 47.9533 29.7465 47.7322 29.5094L45.3363 26.9403L48.8409 27.1823C49.1644 27.2046 49.3261 27.2158 49.4801 27.1882C49.6166 27.1638 49.7482 27.1172 49.8696 27.0501C50.0065 26.9745 50.1251 26.8639 50.3622 26.6427L52.9313 24.2469Z" fill="white" stroke="white" stroke-width="0.0982549" stroke-linecap="round" stroke-linejoin="round"/>
<path d="M33.3096 48.2507L32.9263 51.7426C32.8909 52.0649 32.8732 52.2261 32.8945 52.3811C32.9133 52.5184 32.9546 52.6518 33.0168 52.7758C33.0868 52.9157 33.1925 53.0386 33.4039 53.2845L35.6941 55.9482L32.2022 55.5649C31.8798 55.5295 31.7187 55.5118 31.5637 55.5331C31.4263 55.552 31.293 55.5933 31.169 55.6554C31.0291 55.7254 30.9062 55.8311 30.6603 56.0426L27.9966 58.3327L28.3799 54.8408C28.4153 54.5185 28.4329 54.3573 28.4117 54.2023C28.3928 54.0649 28.3515 53.9316 28.2894 53.8076C28.2193 53.6677 28.1136 53.5448 27.9022 53.2989L25.612 50.6352L29.104 51.0185C29.4263 51.0539 29.5875 51.0716 29.7424 51.0503C29.8798 51.0314 30.0132 50.9901 30.1371 50.928C30.277 50.858 30.4 50.7523 30.6458 50.5409L33.3096 48.2507Z" fill="white" stroke="white" stroke-width="0.0982549" stroke-linecap="round" stroke-linejoin="round"/>
</svg>
